<?xml version="1.0" encoding="UTF-8"?>
<svg version="1.1" xmlns="http://www.w3.org/2000/svg" width="500" height="500">
<path d="M0 0 C165 0 330 0 500 0 C500 165 500 330 500 500 C335 500 170 500 0 500 C0 335 0 170 0 0 Z " fill="#0A192F" transform="translate(0,0)"/>
<path d="M0 0 C1.43472656 0.38285156 1.43472656 0.38285156 2.8984375 0.7734375 C6.75531079 2.29869973 8.19274698 4.15905493 10.6875 7.4375 C13.50940478 11.17849387 13.50940478 11.17849387 16.66796875 14.62109375 C18.92795656 16.96061193 19.78742694 20.0236843 21 23 C21.33 23.33 21.66 23.66 22 24 C22.20999945 25.95416157 22.36832634 27.91400299 22.5 29.875 C22.72347251 33.18718188 22.94792065 35.84376196 24 39 C25.29106555 47.6125512 22.24541223 53.64633952 18 61 C17.34 61 16.68 61 16 61 C15.773125 61.598125 15.54625 62.19625 15.3125 62.8125 C13.58462621 65.69228965 12.01979131 66.53348028 9 68 C5.625 68.3984375 5.625 68.3984375 2 68.375 C0.80375 68.38273437 -0.3925 68.39046875 -1.625 68.3984375 C-7.07436521 67.75510966 -10.05870949 65.30243936 -13.5 61.1875 C-14.39332031 60.12402344 -14.39332031 60.12402344 -15.3046875 59.0390625 C-15.86414063 58.36617188 -16.42359375 57.69328125 -17 57 C-17.86625 56.030625 -18.7325 55.06125 -19.625 54.0625 C-23.73931131 48.75720384 -26.80684515 43.63968577 -28 37 C-28.33 36.34 -28.66 35.68 -29 35 C-34.82855055 34.37994143 -38.01899588 35.76165657 -42.984375 38.80859375 C-45 40 -45 40 -48 41 C-49.02651373 42.71519747 -49.02651373 42.71519747 -50 45 C-50.598125 45.928125 -51.19625 46.85625 -51.8125 47.8125 C-63.2293679 67.64179688 -62.50842604 94.89263671 -57.265625 116.49609375 C-54.16227253 128.0203685 -49.85066912 141.58824098 -39 148 C-32.46997278 150.20733314 -26.44086482 150.65565509 -20 148 C-9.37667839 142.31826447 -6.27192803 127.68188269 -3 117 C-3.63389648 116.98018066 -4.26779297 116.96036133 -4.92089844 116.93994141 C-32.75341786 116.02499662 -32.75341786 116.02499662 -41.5625 112.625 C-45.39810559 108.49434782 -46.37444099 103.52459982 -47 98 C-46.61491507 94.29297756 -45.88066729 91.16071439 -44.25 87.8125 C-43.94578125 87.15894531 -43.6415625 86.50539063 -43.328125 85.83203125 C-41.51422759 83.32991982 -39.77614574 82.37041427 -37 81 C-33.73020935 80.61904907 -33.73020935 80.61904907 -29.97827148 80.61181641 C-29.29146301 80.60655945 -28.60465454 80.60130249 -27.89703369 80.59588623 C-25.6381523 80.58273606 -23.37998167 80.59140506 -21.12109375 80.6015625 C-19.54598353 80.59954055 -17.97087423 80.5966281 -16.39576721 80.59286499 C-13.09977274 80.58844861 -9.80402265 80.59485128 -6.50805664 80.60888672 C-2.285579 80.62599249 1.93632714 80.61612462 6.15878391 80.59816933 C9.40932008 80.58732483 12.65972089 80.5907806 15.91026115 80.5985527 C17.46717331 80.60055215 19.02409781 80.5981044 20.58099556 80.59111404 C22.75688332 80.58348678 24.93184701 80.59511969 27.10766602 80.61181641 C28.34500992 80.61420319 29.58235382 80.61658997 30.85719299 80.61904907 C34.22332962 81.02707059 35.65700548 81.58136227 38 84 C38.1875 86.5 38.1875 86.5 38 89 C38.33 89.99 38.66 90.98 39 92 C39.03874921 93.66621616 39.0450286 95.33394172 39 97 C38.34 97 37.68 97 37 97 C37 98.65 37 100.3 37 102 C38.32 102.66 39.64 103.32 41 104 C41 105.65 41 107.3 41 109 C39.35 109 37.7 109 36 109 C33.79601232 125.80540605 33.69225428 144.47131868 38.625 160.8125 C40.32450308 166.52108728 40.82640941 172.08184228 40 178 C38.125 181 38.125 181 36 183 C35.29873951 184.31546796 34.62576736 185.64698949 34 187 C24.10260346 187.26003012 24.10260346 187.26003012 19.85546875 184.71484375 C13.92200647 178.62065563 11.61770316 169.90105277 9 162 C7.02690129 164.46418106 5.05643516 166.92656346 3.1328125 169.4296875 C-2.93393012 176.81836625 -9.32359168 180.44443482 -18 184 C-18.69738281 184.28746094 -19.39476563 184.57492187 -20.11328125 184.87109375 C-30.86705666 188.328516 -43.97444777 186.63592912 -54 182 C-69.21988475 174.01649804 -78.21848476 162.00130751 -86 147 C-86.53496094 146.01515625 -87.06992188 145.0303125 -87.62109375 144.015625 C-97.07867734 124.65828508 -98.57234114 102.97929917 -98.625 81.8125 C-98.63198914 80.91101227 -98.63897827 80.00952454 -98.6461792 79.08071899 C-98.71468541 63.17042398 -97.10599238 47.4540361 -89.8125 33.0625 C-89.42594238 32.27456055 -89.03938477 31.48662109 -88.64111328 30.67480469 C-85.23991174 23.98792968 -81.19299591 18.44164764 -76 13 C-75.39285156 12.33871094 -74.78570312 11.67742187 -74.16015625 10.99609375 C-66.57748125 3.03514471 -57.74321919 -3.3141952 -47 -6 C-45.1746875 -6.5259375 -45.1746875 -6.5259375 -43.3125 -7.0625 C-42.219375 -7.371875 -41.12625 -7.68125 -40 -8 C-39.13761719 -8.26490234 -39.13761719 -8.26490234 -38.2578125 -8.53515625 C-24.08448914 -11.45319341 -12.13199879 -7.18016255 0 0 Z " fill="#D92676" transform="translate(104,210)"/>
<path d="M0 0 C3.93679155 3.3104838 7.58186017 6.86108729 8.28515625 12.140625 C8.47254595 17.06164144 7.87925291 19.90260162 5 24 C1.16460959 33.37539878 0.77666999 45.18911521 3 55 C8.6995375 54.05744344 8.6995375 54.05744344 13.25 50.8125 C13.8275 49.884375 14.405 48.95625 15 48 C15.68449219 47.10925781 16.36898437 46.21851563 17.07421875 45.30078125 C20.45523954 39.36260092 19.56783773 32.01818631 19.5625 25.375 C19.56611992 23.26193005 19.57574894 21.14967446 19.60325623 19.03677368 C19.62760728 17.12539706 19.62997481 15.21377749 19.63110352 13.30224609 C20.02641382 9.7635517 20.94563635 7.86707521 23 5 C24.45880109 5.14107747 25.91703551 5.28802415 27.375 5.4375 C28.59316406 5.55931641 28.59316406 5.55931641 29.8359375 5.68359375 C32 6 32 6 34 7 C34 7.99 34 8.98 34 10 C35.2375 10.0825 36.475 10.165 37.75 10.25 C41.79765484 10.74795402 43.32304076 11.86149607 46 15 C47.66324401 16.00568242 49.32936253 17.00664799 51 18 C53.41308777 22.82617554 52.24474195 29.93023277 52.25 35.3125 C52.25133942 36.11456879 52.25267883 36.91663757 52.25405884 37.74301147 C52.2481753 54.44029711 51.57301458 71.11100604 50.78239441 87.78628159 C50.68836005 89.79413596 50.59827779 91.80213333 50.50915527 93.81021118 C48.11705725 146.55892378 48.11705725 146.55892378 28.953125 164.40625 C23.47876241 168.87332987 17.98229805 169.67826607 11.1015625 169.46484375 C1.7414113 168.06199993 -6.09351856 160.90998961 -13.5703125 155.46484375 C-19.62180317 151.07928888 -25.75749659 146.920724 -32.625 143.9375 C-36 142 -36 142 -37 138.75 C-37 137.8425 -37 136.935 -37 136 C-37.763125 135.855625 -38.52625 135.71125 -39.3125 135.5625 C-42 135 -42 135 -45 134 C-45.36627907 128.50581395 -45.36627907 128.50581395 -43.6875 126.1875 C-37.66693831 121.95080844 -27.06449954 123.34627417 -20 124 C-12.83177301 125.31126104 -5.88271125 127.66741357 0.73828125 130.6875 C4.62678347 132.25221467 6.96384297 131.90607607 11 131 C14.82844205 121.43861174 16.27632816 111.91234189 17.62792969 101.76416016 C18.15137501 97.87541478 18.71444853 93.99265095 19.27514648 90.10913086 C19.85714348 86.07374495 20.42851308 82.03688636 21 78 C20.32195312 78.28875 19.64390625 78.5775 18.9453125 78.875 C9.83406243 82.50940446 1.93553437 83.39982969 -7.48046875 80.2265625 C-16.20188303 75.98078873 -21.64162023 68.88504525 -25 60 C-27.80744431 51.35340134 -28.53440406 42.87733529 -28.70849609 33.86230469 C-28.7502306 31.73826379 -28.81300714 29.61560327 -28.87890625 27.4921875 C-29.25285457 14.01981344 -29.25285457 14.01981344 -28 8 C-27.34 7.67 -26.68 7.34 -26 7 C-25.54625 6.21625 -25.0925 5.4325 -24.625 4.625 C-19.28626644 -3.99910805 -8.5163031 -3.43927625 0 0 Z " fill="#D82676" transform="translate(184,277)"/>
<path d="M0 0 C2.22818441 0.06937062 4.45834524 0.08457084 6.6875 0.0625 C7.86699219 0.05347656 9.04648437 0.04445313 10.26171875 0.03515625 C11.61716797 0.01775391 11.61716797 0.01775391 13 0 C13 0.66 13 1.32 13 2 C14.0725 2.103125 15.145 2.20625 16.25 2.3125 C21.83598531 3.33659731 21.83598531 3.33659731 24 6 C25.53230556 11.63347631 25.19352176 16.56842232 23 22 C20.83412767 25.55203063 18.39442738 27.45824731 14.9375 29.625 C8.78026592 33.54323987 4.02554764 38.76886178 -1 44 C-1.88945312 44.88042969 -2.77890625 45.76085937 -3.6953125 46.66796875 C-9.73714707 52.7814861 -13.05680849 60.09632933 -13.375 68.6875 C-13.24835794 72.69783183 -12.11853761 75.55737639 -10 79 C-4.93144182 79.63356977 -2.10648827 78.24615545 2.0703125 75.6796875 C5.2353132 72.92472738 7.69483099 70.16510432 8.29882812 65.87988281 C8.35801984 63.47037199 8.29978752 61.09502051 8.1875 58.6875 C7.63777007 41.96766545 7.63777007 41.96766545 11.25 36.75 C12.1575 35.8425 13.065 34.935 14 34 C14.825 33.113125 15.65 32.22625 16.5 31.3125 C18.880688 29.1103636 21.17594624 27.56891875 24 26 C24.495 25.505 24.495 25.505 25 25 C28.90642938 24.73957137 31.73004468 24.7448584 35 27 C42.08553243 35.23186702 41.35444048 46.93686818 41.04210281 57.17314911 C40.9749189 59.47826797 40.93342886 61.78261024 40.89901733 64.08843994 C40.79922167 70.6337517 40.67299268 77.17775588 40.48583984 83.72119141 C40.3724604 87.74853444 40.30372729 91.7746193 40.26292038 95.80332184 C40.23890417 97.32658594 40.19828128 98.84968918 40.14012527 100.37203217 C39.65824594 109.01001293 39.65824594 109.01001293 42.98651123 116.72570801 C45.80890933 119.2795453 48.59886083 121.29943042 52 123 C52 123.66 52 124.32 52 125 C47.16587478 127.27488246 43.27807975 127.63946098 38.10546875 126.1875 C27.606517 121.91483423 20.33465871 116.07955615 15 106 C13.58235006 106.93601246 12.16592432 107.8738792 10.75 108.8125 C9.96109375 109.33457031 9.1721875 109.85664063 8.359375 110.39453125 C6.84326281 111.42619038 5.3549479 112.50063745 3.90625 113.625 C-3.10226572 118.68032282 -13.77519768 117.65732686 -22 117 C-25.67195309 116.14174802 -28.71633536 114.83448165 -32 113 C-32.76699219 112.59910156 -33.53398437 112.19820313 -34.32421875 111.78515625 C-44.28853668 105.94867121 -50.26961953 95.63051299 -53.6796875 84.8515625 C-58.41819611 65.83261698 -53.96992952 45.0511333 -45 28 C-41.12622796 21.69105591 -36.81085457 16.35803809 -31.0625 11.6875 C-28.79069818 9.82875306 -26.69617087 7.8276336 -24.5625 5.8125 C-16.60334724 -1.21671738 -10.23224693 -3.41074898 0 0 Z " fill="#D82676" transform="translate(293,275)"/>
<path d="M0 0 C11.85290797 6.54811 21.21765619 16.70793352 25.79296875 29.54296875 C26.80697519 34.52637727 27.34226021 39.48200058 27.79296875 44.54296875 C27.95974121 45.76137451 28.12651367 46.97978027 28.29833984 48.23510742 C28.84006543 52.53267983 28.98821022 56.78113372 29.03125 61.109375 C29.03932175 61.90593002 29.04739349 62.70248505 29.05570984 63.5231781 C29.06945496 65.20138436 29.08021928 66.87961745 29.08813477 68.55786133 C29.09960607 70.24381943 29.11998033 71.92974261 29.1496582 73.61547852 C29.3865552 87.1239013 29.4508434 101.74032818 19.671875 112.22265625 C17.26489941 113.9140445 15.74276156 114.42006072 12.79296875 114.54296875 C10.0390625 113.28515625 10.0390625 113.28515625 7.23046875 111.41796875 C6.30105469 110.81726563 5.37164062 110.2165625 4.4140625 109.59765625 C0.53734053 106.55867599 -2.32332734 103.10390349 -4.20703125 98.54296875 C-4.42735291 96.03450012 -4.42735291 96.03450012 -4.38647461 93.18286133 C-4.3717234 91.57517632 -4.3717234 91.57517632 -4.35667419 89.93501282 C-4.33694046 88.78083359 -4.31720673 87.62665436 -4.296875 86.4375 C-4.27644437 83.9850281 -4.25627021 81.53255405 -4.23632812 79.08007812 C-4.19292569 75.22020396 -4.14460129 71.36047268 -4.09057617 67.50073242 C-4.04208028 63.77132646 -4.01234389 60.04210834 -3.984375 56.3125 C-3.96261703 55.16844193 -3.94085907 54.02438385 -3.91844177 52.84565735 C-3.86934047 44.85398497 -4.40439713 37.92050218 -9.64453125 31.60546875 C-13.18447357 28.75624688 -15.03895921 27.6943855 -19.58203125 27.10546875 C-24.26787722 27.67100188 -26.00971292 29.12258169 -29.20703125 32.54296875 C-30.94226413 36.74196739 -31.46311109 40.31679949 -31.47265625 44.83984375 C-31.47652344 46.03738281 -31.48039062 47.23492187 -31.484375 48.46875 C-31.47535156 49.73074219 -31.46632813 50.99273437 -31.45703125 52.29296875 C-31.45123047 54.24009766 -31.45123047 54.24009766 -31.4453125 56.2265625 C-31.36820973 64.83637226 -30.77335165 73.20766389 -29.66015625 81.734375 C-28.56140467 90.96957151 -27.4913126 103.51150476 -32.5859375 111.78125 C-34.79066835 114.17723461 -37.13876274 114.6091479 -40.20703125 115.54296875 C-40.53703125 116.20296875 -40.86703125 116.86296875 -41.20703125 117.54296875 C-42.95668483 117.59726834 -44.70682912 117.63589698 -46.45703125 117.66796875 C-47.4315625 117.69117188 -48.40609375 117.714375 -49.41015625 117.73828125 C-53.40013893 117.45965117 -55.40645366 116.34354634 -58.20703125 113.54296875 C-59.85703125 114.86296875 -61.50703125 116.18296875 -63.20703125 117.54296875 C-66.58584559 116.14483868 -68.35721003 114.71409084 -70.20703125 111.54296875 C-71.60947112 105.64369273 -71.37924462 99.60537618 -71.41796875 93.578125 C-71.44390029 91.15705553 -71.47062296 88.73599443 -71.49804688 86.31494141 C-71.51134033 85.05385559 -71.52463379 83.79276978 -71.53833008 82.49346924 C-70.57070371 48.13689894 -70.57070371 48.13689894 -76.20703125 14.54296875 C-76.5407163 11.82972639 -76.61875444 9.25018971 -76.20703125 6.54296875 C-74.45703125 4.54296875 -74.45703125 4.54296875 -72.20703125 3.54296875 C-70.88703125 3.54296875 -69.56703125 3.54296875 -68.20703125 3.54296875 C-67.54703125 4.20296875 -66.88703125 4.86296875 -66.20703125 5.54296875 C-64.22346642 6.25705209 -62.22387688 6.92914617 -60.20703125 7.54296875 C-60.20703125 8.20296875 -60.20703125 8.86296875 -60.20703125 9.54296875 C-57.55964209 11.00359725 -56.31254791 11.54296875 -53.20703125 11.54296875 C-51.27249388 9.96945345 -51.27249388 9.96945345 -49.26953125 7.91796875 C-35.8296787 -4.50672252 -16.7049036 -7.5584925 0 0 Z " fill="#D82676" transform="translate(412.20703125,278.45703125)"/>
<path d="M0 0 C0.99 0 1.98 0 3 0 C3.12375 1.423125 3.12375 1.423125 3.25 2.875 C3.4975 3.90625 3.745 4.9375 4 6 C5.98562946 7.22236202 5.98562946 7.22236202 8 8 C8.18847109 51.44693489 8.18847109 51.44693489 7.42149353 66.52139282 C7.07397707 73.60194432 6.89467835 80.66969513 6.81640625 87.7578125 C6.78439778 89.92872024 6.75174841 92.09961862 6.71850586 94.27050781 C6.66960766 97.54962062 6.62540751 100.82843273 6.59671021 104.10778809 C6.56932919 107.1945591 6.52434735 110.28067396 6.4765625 113.3671875 C6.47334488 114.28928009 6.47012726 115.21137268 6.46681213 116.16140747 C6.34725089 122.52575023 5.11473828 128.00233784 3 134 C1.02 134.33 -0.96 134.66 -3 135 C-3.33 135.99 -3.66 136.98 -4 138 C-5.32 137.34 -6.64 136.68 -8 136 C-8 135.01 -8 134.02 -8 133 C-8.598125 132.95875 -9.19625 132.9175 -9.8125 132.875 C-12 132 -12 132 -13.625 129.5 C-17.42190034 119.83516276 -17.27984205 110.42471248 -17.23046875 100.2265625 C-17.2292723 98.57774899 -17.22882477 96.92893478 -17.2290802 95.28012085 C-17.22752011 91.82212042 -17.2192816 88.36422417 -17.20581055 84.90625 C-17.1890592 80.55982738 -17.18509378 76.21352013 -17.185606 71.86706924 C-17.18524226 56.1036957 -17.12358634 40.34226959 -16.61328125 24.5859375 C-16.58316452 23.52597565 -16.55304779 22.46601379 -16.52201843 21.37393188 C-16.29039739 15.34450323 -15.48994113 9.85007097 -14 4 C-13.38125 3.855625 -12.7625 3.71125 -12.125 3.5625 C-9.96741678 3.06847775 -9.96741678 3.06847775 -8 2 C-8 2.66 -8 3.32 -8 4 C-7.34 4 -6.68 4 -6 4 C-5.67 3.34 -5.34 2.68 -5 2 C-4.67 2.66 -4.34 3.32 -4 4 C-3.34 4 -2.68 4 -2 4 C-1.34 2.68 -0.68 1.36 0 0 Z " fill="#D92676" transform="translate(484,222)"/>
<path d="M0 0 C4.66338498 2.75069347 9.24718919 5.74156756 11 11 C11.60984988 17.05158728 11.02880613 21.69958928 8 27 C5.875 28.25 5.875 28.25 4 29 C3.67 29.99 3.34 30.98 3 32 C-9.10261276 33.05750985 -9.10261276 33.05750985 -13.41796875 30.65234375 C-16.9449815 27.23061496 -18.92392523 23.84233644 -20 19 C-20.2475 18.278125 -20.495 17.55625 -20.75 16.8125 C-21 15 -21 15 -19 12 C-18.731875 10.865625 -18.46375 9.73125 -18.1875 8.5625 C-16.83262714 4.49788142 -15.53337619 3.29669452 -12 1 C-8.14913605 -0.92543197 -4.16588401 -0.82046537 0 0 Z " fill="#D72675" transform="translate(485,370)"/>
<path d="M0 0 C3.31130313 3.9440258 3.42057179 7.00175303 3 12 C2.69020227 14.79413718 2.25329859 17.54706363 1.75 20.3125 C1.61940186 21.04654053 1.48880371 21.78058105 1.35424805 22.53686523 C0.20745659 28.61292975 -1.57654987 34.3042771 -4 40 C-4.99 39.34 -5.98 38.68 -7 38 C-6.74605469 37.10023438 -6.49210938 36.20046875 -6.23046875 35.2734375 C-3.0782354 23.64765679 -1.43387162 11.94672763 0 0 Z " fill="#B8246B" transform="translate(230,384)"/>
<path d="M0 0 C3.87302138 1.14430177 7.00263439 2.23320098 10 5 C10 5.66 10 6.32 10 7 C6.12697862 5.85569823 2.99736561 4.76679902 0 2 C0 1.34 0 0.68 0 0 Z " fill="#631E4D" transform="translate(150,420)"/>
<path d="M0 0 C3.91211733 1.15585285 6.8745041 2.35534962 10 5 C9.34 5 8.68 5 8 5 C7.67 5.66 7.34 6.32 7 7 C4.0625 5.75 4.0625 5.75 1 4 C0.125 1.8125 0.125 1.8125 0 0 Z " fill="#AD2367" transform="translate(153,418)"/>
<path d="M0 0 C0.66 0.33 1.32 0.66 2 1 C1.34 2.98 0.68 4.96 0 7 C0.66 7 1.32 7 2 7 C1.34 8.98 0.68 10.96 0 13 C-0.99 12.34 -1.98 11.68 -3 11 C-2.01 7.37 -1.02 3.74 0 0 Z " fill="#B02468" transform="translate(226,411)"/>
</svg>
